# xmcd CD database file
#
# Track frame offsets:
#	150
#	13679
#	36034
#	54703
#	79203
#	100243
#	110635
#	131241
#	145444
#	165971
#	176438
#	186600
#	226496
#	242159
#	295286
#	309026
#	330926
#	350955
#
# Disc length: 4871 seconds
#
# Revision: 0
# Processed by: cddbd v1.5.2PL0 Copyright (c) Steve Scherf et al.
# Submitted via: CDex 1.60beta1-cs1
#
DISCID=08130512
DTITLE=Ella Fitzgerald Newport Jazz Festival - Live At Carnegy Hall
DYEAR=1973
DGENRE=Jazz
TTITLE0=I´ve Gotta Be Me
TTITLE1=Good Morning Heartache
TTITLE2=Miss Otis Regrets
TTITLE3=Don´t Worry But Me - Thes Foolish Things (Remind Me Of You)
TTITLE4=Any Old Blues
TTITLE5=A-Tasked A-Tasked
TTITLE6=Indian Summer
TTITLE7=Smooth Sailing
TTITLE8=You Turned The Tables On Me
TTITLE9=Nice Work If You Can Get It
TTITLE10=I´ve Got A Crush On You
TTITLE11=I Can´t Get Started - The Young Man With The Horn - Round Midnight
TTITLE12=Star Dust
TTITLE13=C Jam Blues
TTITLE14=Taking A Chance On Love - I´m In The Mood For Love
TTITLE15=Lemon Drop
TTITLE16=Some Of These Days
TTITLE17=People
EXTD=YEAR: 1973
EXTT0=
EXTT1=
EXTT2=
EXTT3=
EXTT4=
EXTT5=
EXTT6=
EXTT7=
EXTT8=
EXTT9=
EXTT10=
EXTT11=
EXTT12=
EXTT13=
EXTT14=
EXTT15=
EXTT16=
EXTT17=
PLAYORDER=
